<svg width="14" height="14" viewBox="0 0 14 14" fill="none" xmlns="http://www.w3.org/2000/svg">
<path d="M7.14 6.3H4.9C4.70167 6.3 4.5353 6.3672 4.4009 6.5016C4.2665 6.636 4.19953 6.80213 4.2 7C4.2 7.19833 4.2672 7.3647 4.4016 7.4991C4.536 7.6335 4.70213 7.70047 4.9 7.7H7.14L6.51 8.33C6.38167 8.45833 6.3175 8.62167 6.3175 8.82C6.3175 9.01833 6.38167 9.18167 6.51 9.31C6.63833 9.43833 6.80167 9.5025 7 9.5025C7.19833 9.5025 7.36167 9.43833 7.49 9.31L9.31 7.49C9.45 7.35 9.52 7.18667 9.52 7C9.52 6.81333 9.45 6.65 9.31 6.51L7.49 4.69C7.36167 4.56167 7.19833 4.4975 7 4.4975C6.80167 4.4975 6.63833 4.56167 6.51 4.69C6.38167 4.81833 6.3175 4.98167 6.3175 5.18C6.3175 5.37833 6.38167 5.54167 6.51 5.67L7.14 6.3ZM7 1.43051e-06C7.96833 1.43051e-06 8.87833 0.183868 9.73 0.551601C10.5817 0.919335 11.3225 1.41797 11.9525 2.0475C12.5825 2.6775 13.0811 3.41833 13.4484 4.27C13.8157 5.12167 13.9995 6.03167 14 7C14 7.96833 13.8161 8.87833 13.4484 9.73C13.0807 10.5817 12.582 11.3225 11.9525 11.9525C11.3225 12.5825 10.5817 13.0811 9.73 13.4484C8.87833 13.8157 7.96833 13.9995 7 14C6.03167 14 5.12167 13.8161 4.27 13.4484C3.41833 13.0807 2.6775 12.582 2.0475 11.9525C1.4175 11.3225 0.918635 10.5817 0.550902 9.73C0.183169 8.87833 -0.000465236 7.96833 1.43051e-06 7C1.43051e-06 6.03167 0.183868 5.12167 0.551601 4.27C0.919335 3.41833 1.41797 2.6775 2.0475 2.0475C2.6775 1.4175 3.41833 0.918635 4.27 0.550902C5.12167 0.183169 6.03167 -0.000465236 7 1.43051e-06Z" fill="black"/>
</svg>
