<svg width="9" height="14" viewBox="0 0 9 14" fill="none" xmlns="http://www.w3.org/2000/svg">
<path d="M6.42745 13.723L0.203177 7.51715C0.129299 7.44327 0.0768452 7.36324 0.0458161 7.27704C0.0147871 7.19085 -0.00048098 7.0985 1.15436e-05 7C1.15436e-05 6.90149 0.0152796 6.80915 0.0458161 6.72295C0.0763526 6.63676 0.128806 6.55673 0.203177 6.48285L6.42745 0.258575C6.59983 0.0861917 6.81531 0 7.07389 0C7.33246 0 7.5541 0.0923483 7.7388 0.277045C7.92349 0.461741 8.01584 0.677221 8.01584 0.923483C8.01584 1.16974 7.92349 1.38522 7.7388 1.56992L2.30872 7L7.7388 12.4301C7.91118 12.6025 7.99737 12.815 7.99737 13.0677C7.99737 13.3203 7.90502 13.5388 7.72033 13.723C7.53563 13.9077 7.32015 14 7.07389 14C6.82763 14 6.61215 13.9077 6.42745 13.723Z" fill="black"/>
</svg>
