<svg width="9" height="14" viewBox="0 0 9 14" fill="none" xmlns="http://www.w3.org/2000/svg">
<path d="M1.58817 0.277045L7.81245 6.48285C7.88633 6.55673 7.93878 6.63676 7.96981 6.72296C8.00084 6.80915 8.01611 6.9015 8.01561 7C8.01561 7.09851 8.00035 7.19085 7.96981 7.27705C7.93927 7.36324 7.88682 7.44327 7.81245 7.51715L1.58817 13.7414C1.41579 13.9138 1.20031 14 0.941736 14C0.683161 14 0.461525 13.9077 0.276828 13.723C0.0921319 13.5383 -0.000216343 13.3228 -0.000216343 13.0765C-0.000216343 12.8303 0.0921319 12.6148 0.276828 12.4301L5.70691 7L0.276828 1.56992C0.104445 1.39754 0.018253 1.18501 0.018253 0.93235C0.018253 0.679685 0.110601 0.461249 0.295298 0.277045C0.479994 0.0923488 0.695474 5.56918e-07 0.941736 5.56918e-07C1.188 5.56918e-07 1.40348 0.0923488 1.58817 0.277045Z" fill="black"/>
</svg>
