<svg width="15" height="10" viewBox="0 0 15 10" fill="none" xmlns="http://www.w3.org/2000/svg">
<path d="M13.7308 2.58036L7.52496 8.80464C7.45108 8.87851 7.37105 8.93097 7.28486 8.962C7.19867 8.99303 7.10632 9.00829 7.00781 9.0078C6.90931 9.0078 6.81696 8.99253 6.73077 8.962C6.64458 8.93146 6.56454 8.87901 6.49066 8.80464L0.266388 2.58036C0.0940042 2.40798 0.0078125 2.1925 0.0078125 1.93392C0.0078125 1.67535 0.100161 1.45371 0.284857 1.26902C0.469554 1.08432 0.685033 0.991971 0.931295 0.991971C1.17756 0.991971 1.39304 1.08432 1.57773 1.26902L7.00781 6.69909L12.4379 1.26902C12.6103 1.09663 12.8228 1.01044 13.0755 1.01044C13.3281 1.01044 13.5466 1.10279 13.7308 1.28749C13.9155 1.47218 14.0078 1.68766 14.0078 1.93392C14.0078 2.18019 13.9155 2.39566 13.7308 2.58036Z" fill="#CB5499"/>
</svg>
