<svg width="13" height="13" viewBox="0 0 13 13" fill="none" xmlns="http://www.w3.org/2000/svg">
<path d="M9.2517 8.45664L8.9392 8.75375C8.9392 8.75375 8.19549 9.46085 6.26617 7.43164C4.33684 5.40243 5.08055 4.69533 5.08055 4.69533L5.27738 4.50818C5.76236 4.04708 5.82658 3.28768 5.42738 2.72355L4.61187 1.56714C4.11804 0.86793 3.13217 0.752444 2.53204 1.32304L1.45402 2.348C1.15623 2.63112 0.952263 3.00277 0.965476 3.421C0.998392 4.49082 1.42183 6.80238 4.03606 9.55197C6.80898 12.4685 9.47518 12.6486 10.5693 12.5742C10.9145 12.5503 11.2199 12.3807 11.4674 12.1453L12.443 11.2178C13.1014 10.5917 12.9481 9.48571 12.1381 9.01569L10.8756 8.28421C10.3437 7.97569 9.68443 8.04521 9.25221 8.45616L9.2517 8.45664Z" fill="white"/>
</svg>
