<svg width="14" height="14" viewBox="0 0 14 14" fill="none" xmlns="http://www.w3.org/2000/svg">
<path d="M13.1833 14C11.5111 14 9.88115 13.6272 8.29344 12.8816C6.70574 12.1359 5.29926 11.1507 4.074 9.926C2.84874 8.70126 1.86356 7.29478 1.11844 5.70656C0.373333 4.11833 0.000518519 2.48837 0 0.816667C0 0.583333 0.0777777 0.388889 0.233333 0.233333C0.388889 0.0777777 0.583333 0 0.816667 0H3.96667C4.14815 0 4.31019 0.0583333 4.45278 0.175C4.59537 0.291667 4.67963 0.440741 4.70556 0.622222L5.21111 3.34444C5.23704 3.52593 5.23367 3.69133 5.201 3.84067C5.16833 3.99 5.09393 4.12274 4.97778 4.23889L4.71228 4.50991C3.76666 5.47524 3.55945 6.97826 4.44072 8.00267C4.6653 8.26373 4.90266 8.51932 5.15278 8.76944C5.41107 9.02774 5.6778 9.27501 5.95295 9.51127C7.00066 10.4108 8.54197 10.2025 9.51843 9.22601L9.68333 9.06111C9.8 8.94444 9.95244 8.85707 10.1407 8.799C10.3289 8.74093 10.5135 8.72459 10.6944 8.75L13.3778 9.29444C13.5593 9.33333 13.7083 9.42096 13.825 9.55733C13.9417 9.6937 14 9.85237 14 10.0333V13.1833C14 13.4167 13.9222 13.6111 13.7667 13.7667C13.6111 13.9222 13.4167 14 13.1833 14Z" fill="white"/>
</svg>
