<svg width="15" height="14" viewBox="0 0 15 14" fill="none" xmlns="http://www.w3.org/2000/svg">
<path d="M0.605315 13.5017L2.35745 4.39062H12.3166L14.1661 13.5017H0.605315Z" stroke="black"/>
<path d="M9.72396 5.44444C9.62082 5.44444 9.5219 5.4062 9.44897 5.33814C9.37604 5.27007 9.33507 5.17775 9.33507 5.08148V2.9037C9.33507 2.32612 9.08924 1.77219 8.65165 1.36378C8.21407 0.95537 7.62057 0.725926 7.00174 0.725926C6.3829 0.725926 5.7894 0.95537 5.35182 1.36378C4.91424 1.77219 4.6684 2.32612 4.6684 2.9037V5.08148C4.6684 5.17775 4.62743 5.27007 4.5545 5.33814C4.48157 5.4062 4.38265 5.44444 4.27951 5.44444C4.17637 5.44444 4.07746 5.4062 4.00453 5.33814C3.9316 5.27007 3.89062 5.17775 3.89062 5.08148V2.9037C3.89062 2.13359 4.2184 1.39503 4.80185 0.850475C5.38529 0.305925 6.17662 0 7.00174 0C7.82685 0 8.61818 0.305925 9.20162 0.850475C9.78507 1.39503 10.1128 2.13359 10.1128 2.9037V5.08148C10.1128 5.17775 10.0719 5.27007 9.99894 5.33814C9.92601 5.4062 9.8271 5.44444 9.72396 5.44444Z" fill="#232323"/>
<circle cx="4.6684" cy="6.22309" r="0.527778" stroke="black" stroke-width="0.5"/>
<circle cx="9.33247" cy="6.22309" r="0.527778" stroke="black" stroke-width="0.5"/>
<circle cx="12.5" cy="5.5" r="2.5" fill="#CB5499"/>
<path d="M12.3764 7.06392C12.1321 7.06297 11.9219 7.00284 11.7457 6.88352C11.5705 6.7642 11.4356 6.59138 11.3409 6.36506C11.2472 6.13873 11.2008 5.86648 11.2017 5.5483C11.2017 5.23106 11.2486 4.9607 11.3423 4.73722C11.437 4.51373 11.572 4.34375 11.7472 4.22727C11.9233 4.10985 12.133 4.05114 12.3764 4.05114C12.6198 4.05114 12.8291 4.10985 13.0043 4.22727C13.1804 4.3447 13.3158 4.51515 13.4105 4.73864C13.5052 4.96117 13.5521 5.23106 13.5511 5.5483C13.5511 5.86742 13.5038 6.14015 13.4091 6.36648C13.3153 6.5928 13.1809 6.76562 13.0057 6.88494C12.8305 7.00426 12.6207 7.06392 12.3764 7.06392ZM12.3764 6.55398C12.5431 6.55398 12.6761 6.47017 12.7756 6.30256C12.875 6.13494 12.9242 5.88352 12.9233 5.5483C12.9233 5.32765 12.9006 5.14394 12.8551 4.99716C12.8106 4.85038 12.7472 4.74006 12.6648 4.66619C12.5833 4.59233 12.4872 4.5554 12.3764 4.5554C12.2107 4.5554 12.0781 4.63826 11.9787 4.80398C11.8793 4.9697 11.8291 5.2178 11.8281 5.5483C11.8281 5.77178 11.8504 5.95833 11.8949 6.10795C11.9403 6.25663 12.0043 6.36837 12.0866 6.44318C12.169 6.51705 12.2656 6.55398 12.3764 6.55398Z" fill="white"/>
</svg>
