<svg width="16" height="16" viewBox="0 0 16 16" fill="none" xmlns="http://www.w3.org/2000/svg">
<path d="M13.1428 8.85713V13.1428C13.1428 13.2976 13.0863 13.4315 12.9732 13.5446C12.8601 13.6577 12.7262 13.7143 12.5714 13.7143H9.14283V10.2857H6.85711V13.7143H3.42854C3.27378 13.7143 3.13985 13.6577 3.02676 13.5446C2.91366 13.4315 2.85711 13.2976 2.85711 13.1428V8.85713C2.85711 8.85117 2.8586 8.84224 2.86158 8.83034C2.86456 8.81844 2.86604 8.80951 2.86604 8.80355L7.99997 4.57141L13.1339 8.80355C13.1399 8.81546 13.1428 8.83332 13.1428 8.85713ZM15.1339 8.24105L14.5803 8.90177C14.5327 8.95534 14.4702 8.98808 14.3928 8.99998H14.366C14.2887 8.99998 14.2262 8.97915 14.1785 8.93748L7.99997 3.7857L1.8214 8.93748C1.74997 8.9851 1.67854 9.00594 1.60711 8.99998C1.52973 8.98808 1.46723 8.95534 1.41961 8.90177L0.866043 8.24105C0.818424 8.18153 0.797591 8.11159 0.803543 8.03123C0.809496 7.95088 0.842234 7.88689 0.901758 7.83927L7.3214 2.49105C7.51188 2.33629 7.73807 2.25891 7.99997 2.25891C8.26188 2.25891 8.48807 2.33629 8.67854 2.49105L10.8571 4.31248V2.57141C10.8571 2.48808 10.8839 2.41963 10.9375 2.36605C10.991 2.31248 11.0595 2.2857 11.1428 2.2857H12.8571C12.9404 2.2857 13.0089 2.31248 13.0625 2.36605C13.116 2.41963 13.1428 2.48808 13.1428 2.57141V6.21427L15.0982 7.83927C15.1577 7.88689 15.1904 7.95088 15.1964 8.03123C15.2024 8.11159 15.1815 8.18153 15.1339 8.24105Z" fill="black"/>
</svg>
