<svg width="21" height="13" viewBox="0 0 21 13" fill="none" xmlns="http://www.w3.org/2000/svg">
<path fill-rule="evenodd" clip-rule="evenodd" d="M1.76488 2.81641C1.76619 2.81641 1.76747 2.81677 1.76858 2.81745L10.1774 7.97306C10.4439 8.1365 10.7808 8.13175 11.0427 7.96086L18.9241 2.81728C18.925 2.81671 18.926 2.81641 18.927 2.81641V2.81641C18.93 2.81641 18.9324 2.81881 18.9324 2.82178V12.1872C18.9324 12.6341 18.5701 12.9964 18.1232 12.9964H2.56708C2.12013 12.9964 1.75781 12.6341 1.75781 12.1872V2.82348C1.75781 2.81957 1.76098 2.81641 1.76488 2.81641V2.81641Z" fill="white"/>
<path d="M11.1844 7.1659C10.8721 7.38237 10.4602 7.38963 10.1405 7.18429L1.96634 1.93508C1.90969 1.8987 1.85711 1.85634 1.80951 1.80874L1.60565 1.60488C1.01316 1.01239 1.43279 -0.000675678 2.2707 -0.000675678L18.4208 -0.000675678C19.2587 -0.000675678 19.6783 1.01239 19.0858 1.60488L18.8702 1.82057C18.8304 1.86034 18.7871 1.89647 18.7409 1.92852L11.1844 7.1659Z" fill="white"/>
</svg>
