<svg width="16" height="16" viewBox="0 0 16 16" fill="none" xmlns="http://www.w3.org/2000/svg">
<path d="M7.78787 4.15082L2.66688 9.57464V15.4285C2.66688 15.5801 2.7137 15.7254 2.79704 15.8326C2.88039 15.9398 2.99342 16 3.11129 16L6.22383 15.9896C6.3413 15.9889 6.45377 15.9283 6.53664 15.8212C6.6195 15.7142 6.66602 15.5692 6.66601 15.4181V11.9996C6.66601 11.848 6.71284 11.7026 6.79618 11.5954C6.87952 11.4883 6.99256 11.4281 7.11042 11.4281H8.88807C9.00593 11.4281 9.11897 11.4883 9.20231 11.5954C9.28565 11.7026 9.33248 11.848 9.33248 11.9996V15.4156C9.33229 15.4908 9.34365 15.5654 9.3659 15.6349C9.38816 15.7044 9.42086 15.7677 9.46215 15.8209C9.50343 15.8742 9.55249 15.9164 9.6065 15.9453C9.6605 15.9741 9.71841 15.9889 9.77689 15.9889L12.8883 16C13.0062 16 13.1192 15.9398 13.2026 15.8326C13.2859 15.7254 13.3327 15.5801 13.3327 15.4285V9.57071L8.21284 4.15082C8.15265 4.08843 8.07767 4.05441 8.00036 4.05441C7.92304 4.05441 7.84806 4.08843 7.78787 4.15082ZM15.877 7.8373L13.5549 5.37596V0.428619C13.5549 0.314942 13.5198 0.205921 13.4573 0.12554C13.3948 0.0451581 13.31 0 13.2216 0H11.6662C11.5778 0 11.493 0.0451581 11.4305 0.12554C11.368 0.205921 11.3329 0.314942 11.3329 0.428619V3.02212L8.84612 0.391115C8.60748 0.138579 8.30802 0.000504822 7.99897 0.000504822C7.68991 0.000504822 7.39045 0.138579 7.15181 0.391115L0.120963 7.8373C0.0872117 7.87318 0.0592882 7.91725 0.0387875 7.967C0.0182869 8.01676 0.00561089 8.07122 0.00148382 8.12728C-0.00264326 8.18334 0.00185948 8.23989 0.0147348 8.29371C0.02761 8.34753 0.0486055 8.39756 0.0765215 8.44094L0.7848 9.54821C0.81264 9.59174 0.846884 9.62778 0.88557 9.65428C0.924256 9.68077 0.966626 9.69719 1.01025 9.7026C1.05388 9.708 1.09791 9.70229 1.13982 9.68579C1.18173 9.66929 1.22069 9.64232 1.25449 9.60643L7.78787 2.68637C7.84806 2.62398 7.92304 2.58996 8.00036 2.58996C8.07767 2.58996 8.15265 2.62398 8.21284 2.68637L14.7465 9.60643C14.7802 9.64233 14.8191 9.66933 14.861 9.68588C14.9028 9.70244 14.9468 9.70823 14.9904 9.70292C15.034 9.69762 15.0764 9.68132 15.1151 9.65495C15.1537 9.62859 15.188 9.59268 15.2159 9.54928L15.9242 8.44201C15.9521 8.39838 15.973 8.34809 15.9857 8.29404C15.9984 8.23998 16.0027 8.18323 15.9983 8.12704C15.9939 8.07084 15.981 8.01632 15.9601 7.96659C15.9393 7.91687 15.911 7.87293 15.877 7.8373Z" fill="black"/>
</svg>
