<svg width="24" height="24" viewBox="0 0 24 24" fill="none" xmlns="http://www.w3.org/2000/svg">
<path d="M17.0009 11.0002H9.41087L12.7109 7.71019C12.8992 7.52188 13.005 7.26649 13.005 7.00019C13.005 6.73388 12.8992 6.47849 12.7109 6.29019C12.5226 6.10188 12.2672 5.99609 12.0009 5.99609C11.7346 5.99609 11.4792 6.10188 11.2909 6.29019L6.29087 11.2902C6.19983 11.3853 6.12847 11.4974 6.08087 11.6202C5.98085 11.8636 5.98085 12.1367 6.08087 12.3802C6.12847 12.5029 6.19983 12.6151 6.29087 12.7102L11.2909 17.7102C11.3838 17.8039 11.4944 17.8783 11.6163 17.9291C11.7382 17.9798 11.8689 18.006 12.0009 18.006C12.1329 18.006 12.2636 17.9798 12.3854 17.9291C12.5073 17.8783 12.6179 17.8039 12.7109 17.7102C12.8046 17.6172 12.879 17.5066 12.9298 17.3848C12.9805 17.2629 13.0067 17.1322 13.0067 17.0002C13.0067 16.8682 12.9805 16.7375 12.9298 16.6156C12.879 16.4937 12.8046 16.3831 12.7109 16.2902L9.41087 13.0002H17.0009C17.2661 13.0002 17.5204 12.8948 17.708 12.7073C17.8955 12.5198 18.0009 12.2654 18.0009 12.0002C18.0009 11.735 17.8955 11.4806 17.708 11.2931C17.5204 11.1055 17.2661 11.0002 17.0009 11.0002Z" fill="white"/>
</svg>
