<svg width="10" height="13" viewBox="0 0 10 13" fill="none" xmlns="http://www.w3.org/2000/svg">
<path d="M4.9 0C2.191 0 0 2.191 0 4.9C0 7.2415 1.98917 10.2934 3.43273 12.1999C4.18369 13.1917 5.61631 13.1917 6.36727 12.1999C7.81083 10.2934 9.8 7.2415 9.8 4.9C9.8 2.191 7.609 0 4.9 0ZM4.9 6.65C4.43587 6.65 3.99075 6.46563 3.66256 6.13744C3.33437 5.80925 3.15 5.36413 3.15 4.9C3.15 4.43587 3.33437 3.99075 3.66256 3.66256C3.99075 3.33437 4.43587 3.15 4.9 3.15C5.36413 3.15 5.80925 3.33437 6.13744 3.66256C6.46562 3.99075 6.65 4.43587 6.65 4.9C6.65 5.36413 6.46562 5.80925 6.13744 6.13744C5.80925 6.46563 5.36413 6.65 4.9 6.65Z" fill="white"/>
</svg>
