<svg width="9" height="13" viewBox="0 0 9 13" fill="none" xmlns="http://www.w3.org/2000/svg">
<path d="M4.09836 0C3.01141 0 1.96897 0.43179 1.20038 1.20038C0.43179 1.96897 0 3.01141 0 4.09836C0 5.52093 1.61818 9.06525 2.82094 11.5032C3.35228 12.5802 4.84448 12.5802 5.37584 11.5032C6.57859 9.06539 8.19672 5.52125 8.19672 4.09836C8.19672 3.01141 7.76493 1.96897 6.99634 1.20038C6.22775 0.43179 5.18531 0 4.09836 0ZM4.09836 6.05683C3.57894 6.05683 3.0808 5.85049 2.71351 5.48321C2.34623 5.11592 2.13989 4.61778 2.13989 4.09836C2.13989 3.57894 2.34623 3.0808 2.71351 2.71351C3.0808 2.34623 3.57894 2.13989 4.09836 2.13989C4.61778 2.13989 5.11592 2.34623 5.48321 2.71351C5.85049 3.0808 6.05683 3.57894 6.05683 4.09836C6.05683 4.61778 5.85049 5.11592 5.48321 5.48321C5.11592 5.85049 4.61778 6.05683 4.09836 6.05683Z" fill="white"/>
</svg>
