<svg width="28" height="26" viewBox="0 0 28 26" fill="none" xmlns="http://www.w3.org/2000/svg">
<path d="M13.2495 5.89734C13.3237 5.17139 14.3812 5.17139 14.4554 5.89734V5.89734C14.5181 6.51046 15.3495 6.64961 15.6084 6.0903L15.6441 6.01319C15.947 5.3589 16.9349 5.70051 16.7689 6.40213V6.40213C16.628 6.99768 17.3665 7.3954 17.7862 6.94995L17.8802 6.85013C18.3663 6.33419 19.1801 6.96352 18.8031 7.56376V7.56376C18.481 8.07652 19.0533 8.68147 19.5831 8.38834L19.7021 8.32253C20.3129 7.98461 20.8848 8.82247 20.3476 9.26821V9.26821C19.8863 9.651 20.2674 10.3913 20.8543 10.269V10.269C21.5321 10.1278 21.8862 11.0786 21.245 11.34V11.34C20.6931 11.565 20.8155 12.3796 21.4091 12.4331V12.4331C22.0999 12.4953 22.0999 13.5047 21.4091 13.5669V13.5669C20.8155 13.6204 20.6931 14.435 21.245 14.66V14.66C21.8862 14.9214 21.5321 15.8722 20.8543 15.731V15.731C20.2674 15.6087 19.8863 16.349 20.3476 16.7318V16.7318C20.8848 17.1775 20.3129 18.0154 19.7021 17.6775L19.5831 17.6117C19.0533 17.3185 18.481 17.9235 18.8031 18.4362V18.4362C19.1801 19.0365 18.3663 19.6658 17.8802 19.1499L17.7862 19.0501C17.3665 18.6046 16.628 19.0023 16.7689 19.5979V19.5979C16.9349 20.2995 15.947 20.6411 15.6441 19.9868L15.6084 19.9097C15.3495 19.3504 14.5181 19.4895 14.4554 20.1027V20.1027C14.3812 20.8286 13.3237 20.8286 13.2495 20.1027V20.1027C13.1868 19.4895 12.3554 19.3504 12.0965 19.9097L12.0608 19.9868C11.7579 20.6411 10.77 20.2995 10.9361 19.5979V19.5979C11.077 19.0023 10.3384 18.6046 9.91873 19.0501L9.82469 19.1499C9.33863 19.6658 8.52477 19.0365 8.90181 18.4362V18.4362C9.2239 17.9235 8.65166 17.3185 8.12181 17.6117L8.00284 17.6775C7.39202 18.0154 6.82009 17.1775 7.3573 16.7318V16.7318C7.81866 16.349 7.43747 15.6087 6.8506 15.731V15.731C6.17278 15.8722 5.81875 14.9214 6.4599 14.66V14.66C7.01185 14.435 6.88944 13.6204 6.29578 13.5669V13.5669C5.60502 13.5047 5.60502 12.4953 6.29578 12.4331V12.4331C6.88944 12.3796 7.01185 11.565 6.4599 11.34V11.34C5.81875 11.0786 6.17278 10.1278 6.8506 10.269V10.269C7.43747 10.3913 7.81866 9.651 7.35731 9.26821V9.26821C6.82009 8.82247 7.39202 7.98461 8.00284 8.32252L8.12181 8.38834C8.65166 8.68147 9.2239 8.07652 8.90181 7.56376V7.56376C8.52477 6.96352 9.33863 6.33419 9.82469 6.85013L9.91873 6.94995C10.3384 7.3954 11.077 6.99768 10.936 6.40213V6.40213C10.77 5.70051 11.7579 5.3589 12.0608 6.01319L12.0965 6.0903C12.3554 6.6496 13.1868 6.51046 13.2495 5.89734V5.89734Z" fill="#D9D9D9"/>
<path d="M13.811 16.1881V15.8378C13.811 15.5719 13.8672 15.3275 13.9797 15.1048C14.0943 14.8799 14.2597 14.7005 14.4759 14.5664C14.6943 14.4302 14.9603 14.3621 15.2738 14.3621C15.5917 14.3621 15.8587 14.4291 16.0749 14.5632C16.2933 14.6972 16.4576 14.8767 16.5679 15.1016C16.6804 15.3243 16.7366 15.5697 16.7366 15.8378V16.1881C16.7366 16.4541 16.6804 16.6995 16.5679 16.9244C16.4555 17.1471 16.2901 17.3255 16.0717 17.4595C15.8533 17.5958 15.5873 17.6639 15.2738 17.6639C14.9559 17.6639 14.6889 17.5958 14.4727 17.4595C14.2564 17.3255 14.0921 17.1471 13.9797 16.9244C13.8672 16.6995 13.811 16.4541 13.811 16.1881ZM14.7548 15.8378V16.1881C14.7548 16.3416 14.7916 16.4865 14.8651 16.6227C14.9408 16.759 15.077 16.8271 15.2738 16.8271C15.4706 16.8271 15.6046 16.76 15.676 16.626C15.7495 16.4919 15.7863 16.346 15.7863 16.1881V15.8378C15.7863 15.68 15.7517 15.5329 15.6825 15.3967C15.6133 15.2605 15.477 15.1924 15.2738 15.1924C15.0792 15.1924 14.944 15.2605 14.8684 15.3967C14.7927 15.5329 14.7548 15.68 14.7548 15.8378ZM10.4022 12.3868V12.0365C10.4022 11.7684 10.4595 11.523 10.5741 11.3003C10.6887 11.0754 10.8541 10.8959 11.0703 10.7619C11.2887 10.6278 11.5525 10.5608 11.8617 10.5608C12.1817 10.5608 12.4499 10.6278 12.6661 10.7619C12.8823 10.8959 13.0466 11.0754 13.1591 11.3003C13.2715 11.523 13.3277 11.7684 13.3277 12.0365V12.3868C13.3277 12.6549 13.2704 12.9004 13.1558 13.1231C13.0434 13.3458 12.878 13.5242 12.6596 13.6582C12.4434 13.7901 12.1774 13.8561 11.8617 13.8561C11.546 13.8561 11.279 13.7891 11.0606 13.655C10.8444 13.5188 10.68 13.3404 10.5676 13.1198C10.4573 12.8971 10.4022 12.6528 10.4022 12.3868ZM11.3525 12.0365V12.3868C11.3525 12.5447 11.3893 12.6906 11.4628 12.8247C11.5384 12.9587 11.6714 13.0258 11.8617 13.0258C12.0606 13.0258 12.1958 12.9587 12.2671 12.8247C12.3407 12.6906 12.3774 12.5447 12.3774 12.3868V12.0365C12.3774 11.8787 12.3428 11.7316 12.2736 11.5954C12.2044 11.4592 12.0671 11.3911 11.8617 11.3911C11.6693 11.3911 11.5363 11.4603 11.4628 11.5987C11.3893 11.7371 11.3525 11.883 11.3525 12.0365ZM10.8303 17.4336L15.397 10.7911H16.2468L11.6801 17.4336H10.8303Z" fill="black"/>
</svg>
