<svg width="17" height="20" viewBox="0 0 17 20" fill="none" xmlns="http://www.w3.org/2000/svg">
<path fill-rule="evenodd" clip-rule="evenodd" d="M8.47884 0C2.8554 0 0 3.89747 0 7.1653C0 7.77312 0.0651293 8.35953 0.217125 8.89144C0.553723 10.1182 1.2811 11.1062 2.43202 11.5624C2.70324 11.6815 2.95289 11.5624 3.01802 11.2801C3.08339 11.0737 3.20229 10.5741 3.26783 10.3571C3.3547 10.0638 3.32201 9.96644 3.10489 9.71663C2.82279 9.37987 2.58385 8.99988 2.45367 8.52223C2.36672 8.20737 2.31238 7.85999 2.31238 7.45843C2.31238 4.55963 4.55955 1.95397 8.16415 1.95397C11.3449 1.95397 13.1039 3.83218 13.1039 6.35106C13.1039 7.10042 13.0277 7.80597 12.8866 8.47892C12.3874 10.7915 11.0847 12.4634 9.33656 12.4634C8.09893 12.4634 7.15435 11.475 7.45851 10.2484C7.63232 9.56496 7.88173 8.84804 8.09902 8.15319C8.32701 7.42566 8.52232 6.72018 8.52232 6.17741C8.52232 5.22196 8.00128 4.45128 6.90503 4.45128C5.63439 4.45128 4.61414 5.73237 4.61414 7.42558C4.61414 7.74068 4.64625 8.04467 4.68989 8.27242C4.80936 8.88057 4.99405 9.24969 4.99405 9.24969C4.99405 9.24969 3.69138 14.5803 3.47401 15.5142C3.0181 17.3811 3.40888 19.6501 3.44165 19.8782C3.45251 20.0081 3.63679 20.041 3.72398 19.9432C3.84321 19.7917 5.35206 17.9998 5.87334 16.187C6.0036 15.6658 6.70948 13.0171 6.70948 13.0171C7.11129 13.7881 8.31614 14.4609 9.60794 14.4609C12.7017 14.4609 15.0036 12.2135 15.7526 8.94578C15.9262 8.20737 16.0132 7.40392 16.0132 6.57914C16.0132 3.15915 13.0277 0 8.47884 0Z" fill="white"/>
</svg>
