<svg width="70" height="70" viewBox="0 0 70 70" fill="none" xmlns="http://www.w3.org/2000/svg">
<g clip-path="url(#clip0_248_4)">
<path d="M3687.88 1687.21C3687.46 1687.21 3687.18 1687.49 3687.18 1687.91C3687.18 1688.33 3687.46 1688.61 3687.88 1688.61H3690.89C3691.31 1688.61 3691.59 1688.33 3691.59 1687.91C3691.59 1687.49 3691.31 1687.21 3690.89 1687.21H3687.88ZM3690.89 1689.59H3687.88C3687.46 1689.59 3687.18 1689.87 3687.18 1690.29C3687.18 1690.71 3687.46 1690.99 3687.88 1690.99H3690.89C3691.31 1690.99 3691.59 1690.71 3691.59 1690.29C3691.59 1689.87 3691.31 1689.59 3690.89 1689.59ZM3690.89 1691.9H3687.88C3687.46 1691.9 3687.18 1692.18 3687.18 1692.6C3687.18 1693.02 3687.46 1693.3 3687.88 1693.3H3690.89C3691.31 1693.3 3691.59 1693.02 3691.59 1692.6C3691.59 1692.25 3691.31 1691.9 3690.89 1691.9ZM35 1.75C16.66 1.75 1.75 16.66 1.75 35C1.75 53.34 16.66 68.25 35 68.25C53.34 68.25 68.25 53.34 68.25 35C68.25 16.66 53.34 1.75 35 1.75ZM47.04 36.96L29.12 48.86C27.58 49.91 25.55 48.79 25.55 46.9V23.03C25.55 21.21 27.58 20.09 29.12 21.07L47.04 33.04C48.44 34.02 48.44 35.98 47.04 36.96Z" fill="#CB5499"/>
</g>
<defs>
<clipPath id="clip0_248_4">
<rect width="70" height="70" fill="white"/>
</clipPath>
</defs>
</svg>
