<svg width="29" height="29" viewBox="0 0 29 29" fill="none" xmlns="http://www.w3.org/2000/svg">
<path d="M6.5678 27.0022C6.0778 27.0022 5.5878 26.8752 5.1388 26.6192C4.69284 26.3695 4.32204 26.0047 4.06507 25.5628C3.80809 25.121 3.67436 24.6183 3.6778 24.1072V4.89221C3.6778 3.83921 4.2238 2.90021 5.1388 2.38021C6.0528 1.85921 7.1388 1.87021 8.0438 2.40921L24.1858 12.0172C25.0688 12.5432 25.5968 13.4712 25.5968 14.5002C25.5968 15.5292 25.0688 16.4572 24.1858 16.9832L8.0448 26.5912C7.59856 26.859 7.0882 27.001 6.5678 27.0022ZM6.5718 4.00021C6.41579 4.00159 6.26267 4.04253 6.1268 4.11921C5.98905 4.1955 5.8745 4.30762 5.79528 4.4437C5.71606 4.57978 5.67512 4.73476 5.6768 4.89221V24.1082C5.6768 24.5752 5.9908 24.8042 6.1268 24.8812C6.2629 24.9606 6.41797 25.0017 6.57554 25.0001C6.73311 24.9986 6.88732 24.9543 7.0218 24.8722L23.1628 15.2642C23.5548 15.0312 23.5978 14.6522 23.5978 14.5002C23.5978 14.3482 23.5558 13.9692 23.1628 13.7362L7.0208 4.12821C6.88584 4.04486 6.73042 4.00055 6.5718 4.00021Z" fill="black"/>
</svg>
