<svg width="24" height="24" viewBox="0 0 24 24" fill="none" xmlns="http://www.w3.org/2000/svg">
<path d="M18.92 11.6241C18.8724 11.5013 18.801 11.3892 18.71 11.2941L13.71 6.29409C13.6168 6.20085 13.5061 6.12689 13.3842 6.07643C13.2624 6.02597 13.1319 6 13 6C12.7337 6 12.4783 6.10579 12.29 6.29409C12.1968 6.38733 12.1228 6.49802 12.0723 6.61984C12.0219 6.74166 11.9959 6.87223 11.9959 7.00409C11.9959 7.27039 12.1017 7.52579 12.29 7.71409L15.59 11.0041H8C7.73478 11.0041 7.48043 11.1094 7.29289 11.297C7.10536 11.4845 7 11.7389 7 12.0041C7 12.2693 7.10536 12.5237 7.29289 12.7112C7.48043 12.8987 7.73478 13.0041 8 13.0041H15.59L12.29 16.2941C12.1963 16.3871 12.1219 16.4977 12.0711 16.6195C12.0203 16.7414 11.9942 16.8721 11.9942 17.0041C11.9942 17.1361 12.0203 17.2668 12.0711 17.3887C12.1219 17.5105 12.1963 17.6211 12.29 17.7141C12.383 17.8078 12.4936 17.8822 12.6154 17.933C12.7373 17.9838 12.868 18.0099 13 18.0099C13.132 18.0099 13.2627 17.9838 13.3846 17.933C13.5064 17.8822 13.617 17.8078 13.71 17.7141L18.71 12.7141C18.801 12.619 18.8724 12.5068 18.92 12.3841C19.02 12.1406 19.02 11.8676 18.92 11.6241Z" fill="white"/>
</svg>
