<svg width="29" height="25" viewBox="0 0 29 25" fill="none" xmlns="http://www.w3.org/2000/svg">
<path d="M0.00600095 18.0851C0.00600095 21.7959 3.014 24.8039 6.72472 24.8039C10.4355 24.8039 13.4435 21.7959 13.4435 18.0851C13.4435 14.3744 10.4355 11.3664 6.72472 11.3664C5.96211 11.3664 5.23211 11.4994 4.54872 11.7336C6.06072 3.06192 12.823 -2.53036 6.55439 2.0722C-0.396555 7.17592 -0.0014435 17.8798 0.00633428 18.076C0.00633428 18.079 0.00600095 18.0818 0.00600095 18.0851Z" fill="#CB5499"/>
<path d="M14.7873 18.0851C14.7873 21.7959 17.7953 24.8039 21.506 24.8039C25.2168 24.8039 28.2248 21.7959 28.2248 18.0851C28.2248 14.3744 25.2168 11.3664 21.506 11.3664C20.7433 11.3664 20.0134 11.4994 19.33 11.7336C20.842 3.06192 27.6043 -2.53036 21.3357 2.0722C14.3847 7.17592 14.7798 17.8798 14.7876 18.076C14.7876 18.079 14.7873 18.0818 14.7873 18.0851Z" fill="#CB5499"/>
</svg>
