<svg width="14" height="9" viewBox="0 0 14 9" fill="none" xmlns="http://www.w3.org/2000/svg">
<path d="M0.277044 6.42745L6.48285 0.203177C6.55673 0.129299 6.63676 0.0768452 6.72295 0.0458161C6.80915 0.0147871 6.90149 -0.00048098 7 1.15436e-05C7.0985 1.15436e-05 7.19085 0.0152796 7.27704 0.0458161C7.36324 0.0763526 7.44327 0.128806 7.51715 0.203177L13.7414 6.42745C13.9138 6.59983 14 6.81531 14 7.07389C14 7.33246 13.9077 7.5541 13.723 7.7388C13.5383 7.92349 13.3228 8.01584 13.0765 8.01584C12.8303 8.01584 12.6148 7.92349 12.4301 7.7388L7 2.30872L1.56992 7.7388C1.39754 7.91118 1.18501 7.99737 0.932348 7.99737C0.679683 7.99737 0.461248 7.90502 0.277044 7.72033C0.092347 7.53563 -7.15256e-07 7.32015 -7.15256e-07 7.07389C-7.15256e-07 6.82763 0.092347 6.61215 0.277044 6.42745Z" fill="#CB5499"/>
</svg>
