<svg width="25" height="20" viewBox="0 0 25 20" fill="none" xmlns="http://www.w3.org/2000/svg">
<path d="M24.7698 2.3675C23.8439 2.77136 22.8646 3.03975 21.8621 3.16443C22.9185 2.5377 23.7084 1.54529 24.0821 0.375183C23.0929 0.961858 22.0106 1.375 20.8821 1.59673C20.1902 0.857923 19.292 0.344289 18.3044 0.122557C17.3168 -0.099174 16.2852 -0.0187525 15.3439 0.353374C14.4025 0.7255 13.5949 1.37213 13.0258 2.20925C12.4567 3.04637 12.1526 4.03529 12.1528 5.04752C12.1528 5.44752 12.1867 5.83214 12.2698 6.1983C10.2622 6.09987 8.29798 5.57883 6.50557 4.66924C4.71317 3.75965 3.13292 2.48199 1.86815 0.919802C1.22018 2.03036 1.01985 3.34614 1.30797 4.59922C1.59609 5.85229 2.35098 6.94844 3.41893 7.66446C2.62009 7.64304 1.83811 7.42987 1.13892 7.04292V7.0983C1.14026 8.26359 1.54302 9.39284 2.27941 10.296C3.01581 11.1991 4.04086 11.8209 5.18202 12.0568C4.75031 12.1706 4.30538 12.2264 3.85894 12.223C3.5383 12.2287 3.21799 12.1998 2.90355 12.1368C3.22961 13.1384 3.85815 14.0143 4.70262 14.6438C5.5471 15.2734 6.56597 15.6257 7.61896 15.6522C5.8327 17.0492 3.62966 17.807 1.362 17.8045C0.948148 17.8045 0.551222 17.7861 0.154297 17.7353C2.46182 19.2223 5.15075 20.0089 7.89589 19.9999C17.1821 19.9999 22.2591 12.3076 22.2591 5.63983C22.2591 5.41675 22.2514 5.20137 22.2406 4.98752C23.2359 4.27519 24.093 3.38733 24.7698 2.3675Z" fill="white"/>
</svg>
