<svg width="20" height="20" viewBox="0 0 20 20" fill="none" xmlns="http://www.w3.org/2000/svg">
<path d="M4.5393 5.10995V8.65087C4.5393 8.77127 4.58713 8.88674 4.67226 8.97188C4.7574 9.05701 4.87286 9.10484 4.99326 9.10484C5.11366 9.10484 5.22913 9.05701 5.31426 8.97188C5.3994 8.88674 5.44723 8.77127 5.44723 8.65087V5.10995L7.26309 0.65201C7.30764 0.531611 7.30253 0.398447 7.24889 0.281812C7.19526 0.165177 7.09749 0.0746253 6.97709 0.0300776C6.85669 -0.01447 6.72353 -0.00936472 6.60689 0.0442703C6.49026 0.0979053 6.39971 0.195677 6.35516 0.316076L4.99326 3.79345L3.63137 0.316076C3.58682 0.195677 3.49627 0.0979053 3.37963 0.0442703C3.263 -0.00936472 3.12983 -0.01447 3.00944 0.0300776C2.88904 0.0746253 2.79126 0.165177 2.73763 0.281812C2.68399 0.398447 2.67889 0.531611 2.72344 0.65201L4.5393 5.10995ZM7.26309 7.28898C7.26309 7.77058 7.4544 8.23245 7.79494 8.57299C8.13548 8.91353 8.59735 9.10484 9.07895 9.10484C9.56054 9.10484 10.0224 8.91353 10.363 8.57299C10.7035 8.23245 10.8948 7.77058 10.8948 7.28898V4.56519C10.8948 4.08359 10.7035 3.62172 10.363 3.28118C10.0224 2.94064 9.56054 2.74933 9.07895 2.74933C8.59735 2.74933 8.13548 2.94064 7.79494 3.28118C7.4544 3.62172 7.26309 4.08359 7.26309 4.56519V7.28898ZM8.17102 4.56519C8.17102 4.32439 8.26667 4.09346 8.43694 3.92319C8.60721 3.75292 8.83815 3.65726 9.07895 3.65726C9.31975 3.65726 9.55068 3.75292 9.72095 3.92319C9.89122 4.09346 9.98688 4.32439 9.98688 4.56519V7.28898C9.98688 7.52978 9.89122 7.76071 9.72095 7.93098C9.55068 8.10125 9.31975 8.19691 9.07895 8.19691C8.83815 8.19691 8.60721 8.10125 8.43694 7.93098C8.26667 7.76071 8.17102 7.52978 8.17102 7.28898V4.56519ZM13.6186 9.10484C13.94 9.09603 14.2533 9.00204 14.5265 8.83246C14.5506 8.95286 14.6215 9.05876 14.7237 9.12687C14.8259 9.19498 14.9509 9.21971 15.0713 9.19563C15.1917 9.17155 15.2976 9.10063 15.3657 8.99847C15.4338 8.89631 15.4585 8.77127 15.4345 8.65087V3.20329C15.4345 3.08289 15.3866 2.96743 15.3015 2.88229C15.2164 2.79716 15.1009 2.74933 14.9805 2.74933C14.8601 2.74933 14.7446 2.79716 14.6595 2.88229C14.5744 2.96743 14.5265 3.08289 14.5265 3.20329V7.28898C14.5265 7.52978 14.4309 7.76071 14.2606 7.93098C14.0903 8.10125 13.8594 8.19691 13.6186 8.19691C13.3778 8.19691 13.1469 8.10125 12.9766 7.93098C12.8063 7.76071 12.7107 7.52978 12.7107 7.28898V3.20329C12.7107 3.08289 12.6628 2.96743 12.5777 2.88229C12.4926 2.79716 12.3771 2.74933 12.2567 2.74933C12.1363 2.74933 12.0208 2.79716 11.9357 2.88229C11.8506 2.96743 11.8027 3.08289 11.8027 3.20329V7.28898C11.8027 7.77058 11.9941 8.23245 12.3346 8.57299C12.6751 8.91353 13.137 9.10484 13.6186 9.10484Z" fill="white"/>
<path d="M12.0294 14.5522H11.5755C11.1994 14.5522 10.8945 14.8571 10.8945 15.2332V16.5951C10.8945 16.9712 11.1994 17.276 11.5755 17.276H12.0294C12.4055 17.276 12.7104 16.9712 12.7104 16.5951V15.2332C12.7104 14.8571 12.4055 14.5522 12.0294 14.5522Z" fill="white"/>
<path d="M16.5705 14.5522H16.1165C15.9359 14.5522 15.7627 14.624 15.635 14.7517C15.5073 14.8794 15.4355 15.0526 15.4355 15.2332V15.4602H17.2514V15.2332C17.2514 15.0526 17.1797 14.8794 17.052 14.7517C16.9243 14.624 16.7511 14.5522 16.5705 14.5522Z" fill="white"/>
<path d="M17.2507 10.0128H2.72379C2.0014 10.0128 1.30859 10.2998 0.79778 10.8106C0.28697 11.3214 0 12.0142 0 12.7366V17.2763C0 17.9987 0.28697 18.6915 0.79778 19.2023C1.30859 19.7131 2.0014 20 2.72379 20H17.2507C17.9731 20 18.6659 19.7131 19.1767 19.2023C19.6875 18.6915 19.9745 17.9987 19.9745 17.2763V12.7366C19.9745 12.0142 19.6875 11.3214 19.1767 10.8106C18.6659 10.2998 17.9731 10.0128 17.2507 10.0128ZM4.53965 17.7302C4.53965 17.8506 4.49182 17.9661 4.40669 18.0512C4.32155 18.1364 4.20608 18.1842 4.08569 18.1842C3.96529 18.1842 3.84982 18.1364 3.76468 18.0512C3.67955 17.9661 3.63172 17.8506 3.63172 17.7302V12.7366H2.26983C2.14943 12.7366 2.03396 12.6888 1.94882 12.6036C1.86369 12.5185 1.81586 12.403 1.81586 12.2826C1.81586 12.1622 1.86369 12.0468 1.94882 11.9616C2.03396 11.8765 2.14943 11.8287 2.26983 11.8287H5.90155C6.02194 11.8287 6.13741 11.8765 6.22255 11.9616C6.30768 12.0468 6.35551 12.1622 6.35551 12.2826C6.35551 12.403 6.30768 12.5185 6.22255 12.6036C6.13741 12.6888 6.02194 12.7366 5.90155 12.7366H4.53965V17.7302ZM9.0793 16.5953V16.7497C9.08136 16.7738 9.08136 16.7981 9.0793 16.8223V17.7302C9.0793 17.8506 9.03147 17.9661 8.94634 18.0512C8.8612 18.1364 8.74573 18.1842 8.62534 18.1842C8.55076 18.1834 8.47758 18.1638 8.41253 18.1273C8.34748 18.0908 8.29265 18.0386 8.25308 17.9754C8.02083 18.1089 7.75829 18.1808 7.49042 18.1842H7.03646C6.61506 18.1842 6.21092 18.0168 5.91295 17.7188C5.61498 17.4208 5.44758 17.0167 5.44758 16.5953V14.0985C5.44758 13.9781 5.49541 13.8626 5.58054 13.7775C5.66568 13.6924 5.78115 13.6445 5.90155 13.6445C6.02194 13.6445 6.13741 13.6924 6.22255 13.7775C6.30768 13.8626 6.35551 13.9781 6.35551 14.0985V16.5953C6.35551 16.7759 6.42725 16.9491 6.55496 17.0768C6.68266 17.2045 6.85586 17.2763 7.03646 17.2763H7.49042C7.67102 17.2763 7.84422 17.2045 7.97192 17.0768C8.09963 16.9491 8.17137 16.7759 8.17137 16.5953V14.0985C8.17137 13.9781 8.2192 13.8626 8.30433 13.7775C8.38947 13.6924 8.50494 13.6445 8.62534 13.6445C8.74573 13.6445 8.8612 13.6924 8.94634 13.7775C9.03147 13.8626 9.0793 13.9781 9.0793 14.0985V16.5953ZM13.619 16.5953C13.619 17.0167 13.4516 17.4208 13.1536 17.7188C12.8556 18.0168 12.4515 18.1842 12.0301 18.1842H11.5761C11.3082 18.1808 11.0457 18.1089 10.8134 17.9754C10.7739 18.0386 10.719 18.0908 10.654 18.1273C10.589 18.1638 10.5158 18.1834 10.4412 18.1842C10.3208 18.1842 10.2053 18.1364 10.1202 18.0512C10.0351 17.9661 9.98723 17.8506 9.98723 17.7302V12.2826C9.98723 12.1622 10.0351 12.0468 10.1202 11.9616C10.2053 11.8765 10.3208 11.8287 10.4412 11.8287C10.5616 11.8287 10.6771 11.8765 10.7622 11.9616C10.8473 12.0468 10.8952 12.1622 10.8952 12.2826V13.808C11.107 13.7029 11.3397 13.6471 11.5761 13.6445H12.0301C12.4515 13.6445 12.8556 13.8119 13.1536 14.1099C13.4516 14.4079 13.619 14.812 13.619 15.2334V16.5953ZM18.1586 15.9144C18.1586 16.0348 18.1108 16.1502 18.0256 16.2354C17.9405 16.3205 17.825 16.3683 17.7046 16.3683H15.4348V16.5953C15.4348 16.7759 15.5066 16.9491 15.6343 17.0768C15.762 17.2045 15.9352 17.2763 16.1158 17.2763H16.7967C16.8755 17.2742 16.9523 17.2513 17.0193 17.2098C17.0863 17.1683 17.1411 17.1098 17.178 17.0402C17.2405 16.9389 17.3403 16.8662 17.4559 16.8377C17.5715 16.8092 17.6936 16.8273 17.796 16.888C17.8984 16.9487 17.9728 17.0472 18.0033 17.1623C18.0337 17.2774 18.0178 17.3998 17.9589 17.5032C17.8422 17.709 17.6733 17.8803 17.4693 17.9998C17.2652 18.1194 17.0332 18.183 16.7967 18.1842H16.1158C15.6944 18.1842 15.2902 18.0168 14.9923 17.7188C14.6943 17.4208 14.5269 17.0167 14.5269 16.5953V15.2334C14.5269 14.812 14.6943 14.4079 14.9923 14.1099C15.2902 13.8119 15.6944 13.6445 16.1158 13.6445H16.5697C16.9911 13.6445 17.3953 13.8119 17.6932 14.1099C17.9912 14.4079 18.1586 14.812 18.1586 15.2334V15.9144Z" fill="white"/>
</svg>
