<svg width="24" height="24" viewBox="0 0 24 24" fill="none" xmlns="http://www.w3.org/2000/svg">
<g clip-path="url(#clip0_252_16)">
<path d="M18.7492 17.2498C19.3425 17.2498 19.9225 17.4258 20.4159 17.7554C20.9092 18.0851 21.2937 18.5536 21.5208 19.1018C21.7479 19.65 21.8073 20.2532 21.6915 20.8351C21.5758 21.417 21.29 21.9516 20.8705 22.3712C20.4509 22.7907 19.9164 23.0764 19.3344 23.1922C18.7525 23.3079 18.1493 23.2485 17.6011 23.0215C17.0529 22.7944 16.5844 22.4099 16.2547 21.9165C15.9251 21.4232 15.7492 20.8432 15.7492 20.2498C15.7492 19.4542 16.0652 18.6911 16.6278 18.1285C17.1904 17.5659 17.9535 17.2498 18.7492 17.2498ZM18.7492 21.7498C19.0458 21.7498 19.3358 21.6619 19.5825 21.497C19.8292 21.3322 20.0214 21.0979 20.135 20.8239C20.2485 20.5498 20.2782 20.2482 20.2203 19.9572C20.1625 19.6662 20.0196 19.3989 19.8098 19.1892C19.6 18.9794 19.3328 18.8365 19.0418 18.7787C18.7508 18.7208 18.4492 18.7505 18.1751 18.864C17.901 18.9775 17.6668 19.1698 17.502 19.4165C17.3371 19.6631 17.2492 19.9532 17.2492 20.2498C17.2492 20.6477 17.4072 21.0292 17.6885 21.3105C17.9698 21.5918 18.3513 21.7498 18.7492 21.7498ZM8.24915 17.2498C8.8425 17.2498 9.42252 17.4258 9.91586 17.7554C10.4092 18.0851 10.7937 18.5536 11.0208 19.1018C11.2479 19.65 11.3073 20.2532 11.1915 20.8351C11.0758 21.417 10.79 21.9516 10.3705 22.3712C9.95092 22.7907 9.41637 23.0764 8.83443 23.1922C8.25248 23.3079 7.64928 23.2485 7.1011 23.0215C6.55293 22.7944 6.08439 22.4099 5.75475 21.9165C5.4251 21.4232 5.24915 20.8432 5.24915 20.2498C5.24915 19.4542 5.56523 18.6911 6.12783 18.1285C6.69044 17.5659 7.45351 17.2498 8.24915 17.2498ZM8.24915 21.7498C8.54583 21.7498 8.83584 21.6619 9.08251 21.497C9.32918 21.3322 9.52144 21.0979 9.63497 20.8239C9.74851 20.5498 9.77821 20.2482 9.72033 19.9572C9.66245 19.6662 9.51959 19.3989 9.30981 19.1892C9.10004 18.9794 8.83276 18.8365 8.54179 18.7787C8.25082 18.7208 7.94922 18.7505 7.67513 18.864C7.40104 18.9775 7.16677 19.1698 7.00195 19.4165C6.83713 19.6631 6.74915 19.9532 6.74915 20.2498C6.74915 20.6477 6.90719 21.0292 7.18849 21.3105C7.4698 21.5918 7.85133 21.7498 8.24915 21.7498ZM1.49915 0.74983H3.74915C3.92048 0.744838 4.08835 0.79868 4.22481 0.90239C4.36127 1.0061 4.45809 1.15342 4.49915 1.31983L5.08416 3.74983H22.4992C22.6069 3.74889 22.7136 3.77118 22.812 3.81519C22.9103 3.85919 22.998 3.92387 23.0692 4.00483C23.1393 4.08658 23.191 4.18249 23.2208 4.28603C23.2506 4.38956 23.2577 4.4983 23.2417 4.60483L21.7417 15.1048C21.7164 15.2838 21.6273 15.4475 21.4909 15.566C21.3545 15.6845 21.1799 15.7498 20.9992 15.7498H5.99915C5.81716 15.7516 5.64073 15.6872 5.50274 15.5685C5.36476 15.4498 5.27463 15.285 5.24915 15.1048L3.74915 4.64233L3.16415 2.24983H1.49915C1.30024 2.24983 1.10948 2.17081 0.968824 2.03016C0.828172 1.88951 0.749155 1.69874 0.749155 1.49983C0.749155 1.30092 0.828172 1.11015 0.968824 0.9695C1.10948 0.828848 1.30024 0.74983 1.49915 0.74983ZM6.65166 14.2498H20.3467L21.6367 5.24983H5.36165L6.65166 14.2498Z" fill="#CB5499"/>
</g>
<defs>
<clipPath id="clip0_252_16">
<rect width="24" height="24" fill="white" transform="matrix(-1 0 0 1 24 0)"/>
</clipPath>
</defs>
</svg>
