<svg width="15" height="15" viewBox="0 0 15 15" fill="none" xmlns="http://www.w3.org/2000/svg">
<path d="M0.000999928 0.5C0.000999928 0.367392 0.0536784 0.240215 0.147447 0.146446C0.241215 0.0526783 0.368392 0 0.501 0H0.939C1.666 0 2.084 0.473 2.326 0.945C2.491 1.268 2.61 1.662 2.709 2.004H13.004C13.1585 2.00405 13.3109 2.0399 13.4493 2.10874C13.5876 2.17759 13.7081 2.27755 13.8013 2.40079C13.8945 2.52403 13.9579 2.6672 13.9865 2.81905C14.015 2.9709 14.008 3.12731 13.966 3.276L12.47 8.551C12.351 8.96951 12.0988 9.3378 11.7516 9.60001C11.4043 9.86222 10.9811 10.0041 10.546 10.004H5.467C5.02828 10.0041 4.60167 9.86004 4.25292 9.59386C3.90416 9.32769 3.6526 8.95422 3.537 8.531L2.895 6.176C2.89132 6.16544 2.88798 6.15477 2.885 6.144L1.854 2.647L1.754 2.31C1.654 1.964 1.566 1.658 1.434 1.401C1.275 1.091 1.129 1.001 0.938 1.001H0.5C0.367392 1.001 0.240215 0.948321 0.146446 0.854553C0.0526783 0.760785 0 0.633608 0 0.501L0.000999928 0.5ZM3.849 5.874L4.502 8.27C4.55989 8.48152 4.68571 8.66814 4.86008 8.80113C5.03445 8.93412 5.2477 9.0061 5.467 9.006H10.547C10.7644 9.00578 10.9759 8.93469 11.1493 8.8035C11.3227 8.67232 11.4486 8.48818 11.508 8.279L13.004 3.004H3.004L3.849 5.874ZM7.004 12.503C7.004 12.9008 6.84596 13.2824 6.56466 13.5637C6.28336 13.845 5.90182 14.003 5.504 14.003C5.10617 14.003 4.72464 13.845 4.44334 13.5637C4.16203 13.2824 4.004 12.9008 4.004 12.503C4.004 12.1052 4.16203 11.7236 4.44334 11.4423C4.72464 11.161 5.10617 11.003 5.504 11.003C5.90182 11.003 6.28336 11.161 6.56466 11.4423C6.84596 11.7236 7.004 12.1052 7.004 12.503ZM6.004 12.503C6.004 12.3704 5.95132 12.2432 5.85755 12.1494C5.76379 12.0557 5.63661 12.003 5.504 12.003C5.37139 12.003 5.24421 12.0557 5.15045 12.1494C5.05668 12.2432 5.004 12.3704 5.004 12.503C5.004 12.6356 5.05668 12.7628 5.15045 12.8566C5.24421 12.9503 5.37139 13.003 5.504 13.003C5.63661 13.003 5.76379 12.9503 5.85755 12.8566C5.95132 12.7628 6.004 12.6356 6.004 12.503ZM12.004 12.503C12.004 12.9008 11.846 13.2824 11.5647 13.5637C11.2834 13.845 10.9018 14.003 10.504 14.003C10.1062 14.003 9.72464 13.845 9.44334 13.5637C9.16203 13.2824 9.004 12.9008 9.004 12.503C9.004 12.1052 9.16203 11.7236 9.44334 11.4423C9.72464 11.161 10.1062 11.003 10.504 11.003C10.9018 11.003 11.2834 11.161 11.5647 11.4423C11.846 11.7236 12.004 12.1052 12.004 12.503ZM11.004 12.503C11.004 12.3704 10.9513 12.2432 10.8576 12.1494C10.7638 12.0557 10.6366 12.003 10.504 12.003C10.3714 12.003 10.2442 12.0557 10.1504 12.1494C10.0567 12.2432 10.004 12.3704 10.004 12.503C10.004 12.6356 10.0567 12.7628 10.1504 12.8566C10.2442 12.9503 10.3714 13.003 10.504 13.003C10.6366 13.003 10.7638 12.9503 10.8576 12.8566C10.9513 12.7628 11.004 12.6356 11.004 12.503Z" fill="black"/>
</svg>
