<svg width="18" height="18" viewBox="0 0 18 18" fill="none" xmlns="http://www.w3.org/2000/svg">
<g clip-path="url(#clip0_41_2)">
<mask id="mask0_41_2" style="mask-type:luminance" maskUnits="userSpaceOnUse" x="0" y="0" width="18" height="18">
<path d="M18 0H0V18H18V0Z" fill="white"/>
</mask>
<g mask="url(#mask0_41_2)">
<path d="M1.06066 0.353478C0.865398 0.158216 0.548816 0.158216 0.353553 0.353478C0.158291 0.54874 0.158291 0.865323 0.353553 1.06058L16.617 17.324C16.8123 17.5193 17.1289 17.5193 17.3241 17.324C17.5194 17.1288 17.5194 16.8122 17.3241 16.6169L1.06066 0.353478Z" fill="#3A5664"/>
<path d="M16.6171 0.353478C16.8123 0.158216 17.1289 0.158216 17.3242 0.353478C17.5194 0.54874 17.5194 0.865323 17.3242 1.06058L1.06072 17.324C0.865458 17.5193 0.548875 17.5193 0.353613 17.324C0.15835 17.1288 0.158351 16.8122 0.353613 16.6169L16.6171 0.353478Z" fill="#3A5664"/>
</g>
</g>
<defs>
<clipPath id="clip0_41_2">
<rect width="18" height="18" fill="white"/>
</clipPath>
</defs>
</svg>
