<svg width="17" height="17" viewBox="0 0 17 17" fill="none" xmlns="http://www.w3.org/2000/svg">
<path d="M11.9911 15.9793V6.61C11.9911 6.54981 11.9793 6.49021 11.9563 6.43459C11.9333 6.37898 11.8995 6.32845 11.857 6.28589C11.8144 6.24333 11.7639 6.20958 11.7083 6.18657C11.6527 6.16356 11.593 6.15174 11.5329 6.15179H10.1636C10.1034 6.15174 10.0438 6.16356 9.98817 6.18657C9.93255 6.20958 9.88202 6.24333 9.83946 6.28589C9.7969 6.32845 9.76315 6.37898 9.74014 6.43459C9.71713 6.49021 9.70531 6.54981 9.70536 6.61V15.9793C9.70531 16.0395 9.71713 16.0991 9.74014 16.1547C9.76315 16.2103 9.7969 16.2608 9.83946 16.3034C9.88202 16.346 9.93255 16.3797 9.98817 16.4027C10.0438 16.4257 10.1034 16.4375 10.1636 16.4375H11.5329C11.593 16.4375 11.6527 16.4257 11.7083 16.4027C11.7639 16.3797 11.8144 16.346 11.857 16.3034C11.8995 16.2608 11.9333 16.2103 11.9563 16.1547C11.9793 16.0991 11.9911 16.0395 11.9911 15.9793ZM2.84821 15.9793L2.84821 6.61C2.84826 6.54981 2.83644 6.49021 2.81343 6.43459C2.79042 6.37898 2.75667 6.32845 2.71411 6.28589C2.67155 6.24333 2.62102 6.20958 2.56541 6.18657C2.50979 6.16356 2.45019 6.15174 2.39 6.15179H1.02071C0.960528 6.15174 0.900922 6.16356 0.845308 6.18657C0.789694 6.20958 0.739162 6.24333 0.696603 6.28589C0.654045 6.32845 0.620295 6.37898 0.597284 6.43459C0.574273 6.49021 0.562453 6.54981 0.5625 6.61L0.5625 15.9793C0.562453 16.0395 0.574273 16.0991 0.597284 16.1547C0.620295 16.2103 0.654045 16.2608 0.696603 16.3034C0.739162 16.346 0.789694 16.3797 0.845308 16.4027C0.900922 16.4257 0.960528 16.4375 1.02071 16.4375H2.39C2.45019 16.4375 2.50979 16.4257 2.56541 16.4027C2.62102 16.3797 2.67155 16.346 2.71411 16.3034C2.75667 16.2608 2.79042 16.2103 2.81343 16.1547C2.83644 16.0991 2.84826 16.0395 2.84821 15.9793ZM5.13393 1.00893L5.13393 15.8661C5.13393 16.0176 5.19413 16.163 5.3013 16.2701C5.40846 16.3773 5.55381 16.4375 5.70536 16.4375H6.84821C6.99977 16.4375 7.14511 16.3773 7.25228 16.2701C7.35944 16.163 7.41964 16.0176 7.41964 15.8661L7.41964 1.00893C7.41964 0.857376 7.35944 0.71203 7.25228 0.604866C7.14511 0.497703 6.99977 0.437499 6.84821 0.437499H5.70536C5.55381 0.437499 5.40846 0.497703 5.3013 0.604866C5.19413 0.71203 5.13393 0.857376 5.13393 1.00893ZM14.2768 1.00893L14.2768 15.8661C14.2768 16.0176 14.337 16.163 14.4442 16.2701C14.5513 16.3773 14.6967 16.4375 14.8482 16.4375L15.9911 16.4375C16.1426 16.4375 16.288 16.3773 16.3951 16.2701C16.5023 16.163 16.5625 16.0176 16.5625 15.8661V1.00893C16.5625 0.857376 16.5023 0.71203 16.3951 0.604866C16.288 0.497703 16.1426 0.437499 15.9911 0.437499H14.8482C14.6967 0.437499 14.5513 0.497703 14.4442 0.604866C14.337 0.71203 14.2768 0.857376 14.2768 1.00893Z" fill="white"/>
</svg>
