<svg width="11" height="16" viewBox="0 0 11 16" fill="none" xmlns="http://www.w3.org/2000/svg">
<path d="M8.56844 0.414571L8.56882 0.414949L9.67233 1.51846C10.0925 1.93861 10.0919 2.61718 9.67271 3.03194L9.67226 3.03239L4.97011 7.7443L4.89955 7.81501L4.97019 7.88565L9.67722 12.5927C10.0974 13.0128 10.0968 13.6914 9.67759 14.1062L9.67706 14.1067L8.5737 15.2149C8.15356 15.6351 7.47498 15.6345 7.06023 15.2153L7.05985 15.2149L0.419225 8.57431L0.418849 8.57394C-0.00553067 8.15402 -0.00552665 7.47544 0.414341 7.05557L7.05497 0.414949C7.47511 -0.00519316 8.15368 -0.00464642 8.56844 0.414571Z" fill="black" stroke="black" stroke-width="0.2"/>
</svg>
