<svg width="14" height="14" viewBox="0 0 14 14" fill="none" xmlns="http://www.w3.org/2000/svg">
<path d="M13.5496 6.8854C14.0773 5.20132 12.5742 4.9434 12.2464 4.9071C12.2117 4.90339 12.1768 4.90158 12.1418 4.90168H9.98092C9.83662 4.90161 9.69404 4.87031 9.56298 4.80991C9.43192 4.74952 9.31549 4.66147 9.22169 4.55181C9.12789 4.44215 9.05894 4.31348 9.01958 4.17465C8.98022 4.03582 8.97138 3.89011 8.99367 3.74753C9.17465 2.59393 8.74496 1.32654 8.74496 1.32654C8.74496 1.32654 8.7222 0.942364 7.77233 0.242832C7.289 -0.113707 6.85118 -0.0199659 6.5407 0.158304C6.39105 0.245906 6.26716 0.371441 6.18154 0.522233C6.09591 0.673026 6.05159 0.843739 6.05303 1.01714V2.96402C6.05297 3.03447 6.03626 3.1039 6.00427 3.16667L3.88346 7.31889C3.83264 7.44097 3.80649 7.5719 3.80651 7.70414L3.81302 12.7325C3.69056 13.4489 5.30799 13.6835 5.61738 13.722C5.6499 13.7257 5.68187 13.7279 5.71438 13.729L9.46941 13.8184C12.3542 13.9522 12.6886 13.0306 12.5786 12.383C12.5472 12.2149 12.559 12.0415 12.6129 11.8792C12.6669 11.7168 12.7611 11.5708 12.8869 11.4548C13.3063 11.081 13.3442 10.6112 13.2944 10.266C13.2726 10.118 13.285 9.96705 13.3305 9.82459C13.3761 9.68212 13.4536 9.55196 13.5571 9.44403C14.2415 8.73691 13.9998 8.13058 13.7132 7.76916C13.6161 7.64629 13.5504 7.50157 13.5219 7.34756C13.4934 7.19355 13.5029 7.03491 13.5496 6.8854ZM2.45242 6.88703H0.674606C0.303437 6.88703 0 7.17096 0 7.5172V12.9243C0 13.2711 0.303437 13.5545 0.674606 13.5545H2.45242C2.82305 13.5545 3.12649 13.2711 3.12649 12.9243V7.5172C3.12649 7.17096 2.82305 6.88703 2.45242 6.88703Z" fill="white"/>
</svg>
