<svg width="14" height="14" viewBox="0 0 14 14" fill="none" xmlns="http://www.w3.org/2000/svg">
<path d="M10.262 0C12.642 0 14 1.344 14 3.731V10.269C14 12.642 12.649 14 10.269 14H3.731C1.344 14 0 12.642 0 10.269V3.731C0 1.344 1.344 0 3.731 0H10.262ZM6.993 3.857C6.671 3.857 6.412 4.116 6.412 4.438V6.412H4.431C4.277 6.412 4.13 6.475 4.018 6.58C3.913 6.692 3.85 6.8383 3.85 6.993C3.85 7.315 4.109 7.574 4.431 7.581H6.412V9.562C6.412 9.884 6.671 10.143 6.993 10.143C7.315 10.143 7.574 9.884 7.574 9.562V7.581H9.562C9.884 7.574 10.143 7.315 10.143 6.993C10.143 6.671 9.884 6.412 9.562 6.412H7.574V4.438C7.574 4.116 7.315 3.857 6.993 3.857Z" fill="white"/>
</svg>
