<svg width="11" height="16" viewBox="0 0 11 16" fill="none" xmlns="http://www.w3.org/2000/svg">
<path d="M1.51884 15.2153L1.51846 15.2149L0.414949 14.1114C-0.00519316 13.6913 -0.00464642 13.0127 0.414571 12.5979L0.414949 12.5976L5.12198 7.89054L5.19269 7.81982L5.12198 7.74911L0.414949 3.04208C-0.00519316 2.62194 -0.00464642 1.94336 0.41457 1.52861L0.415416 1.52776L1.51381 0.414722C1.93397 -0.00519296 2.61237 -0.00457091 3.02706 0.414571L3.02743 0.414949L9.66806 7.05557L9.66843 7.05595C10.0928 7.47586 10.0928 8.15444 9.67294 8.57431L3.03232 15.2149C2.61217 15.6351 1.9336 15.6345 1.51884 15.2153Z" fill="black" stroke="black" stroke-width="0.2"/>
</svg>
