<svg width="14" height="14" viewBox="0 0 14 14" fill="none" xmlns="http://www.w3.org/2000/svg">
<path d="M5.40414 1.05939e-08C6.41027 -6.29743e-05 7.39645 0.280728 8.25165 0.810762C9.10684 1.3408 9.79711 2.09903 10.2447 3.0001C10.6924 3.90117 10.8796 4.9093 10.7853 5.91101C10.691 6.91271 10.319 7.86821 9.71111 8.66994L13.7862 12.745C13.9168 12.8767 13.993 13.0528 13.9995 13.2382C14.0061 13.4235 13.9425 13.6046 13.8214 13.7451C13.7003 13.8856 13.5307 13.9754 13.3464 13.9964C13.1621 14.0173 12.9767 13.9681 12.8271 13.8584L12.7446 13.7866L8.6695 9.71156C7.98613 10.2296 7.18931 10.5776 6.34486 10.7268C5.50042 10.8759 4.6326 10.8221 3.8131 10.5695C2.9936 10.317 2.24595 9.87314 1.63192 9.27455C1.01789 8.67595 0.555115 7.93984 0.281822 7.12704C0.00852877 6.31423 -0.0674332 5.44806 0.0602123 4.60009C0.187858 3.75213 0.515446 2.9467 1.01591 2.25037C1.51638 1.55404 2.17535 0.986791 2.93839 0.59549C3.70143 0.204189 4.54662 7.08206e-05 5.40414 1.05939e-08ZM5.40414 1.47398C4.36168 1.47398 3.36191 1.8881 2.62478 2.62523C1.88765 3.36236 1.47353 4.36213 1.47353 5.40459C1.47353 6.44705 1.88765 7.44682 2.62478 8.18395C3.36191 8.92108 4.36168 9.3352 5.40414 9.3352C6.44661 9.3352 7.44637 8.92108 8.18351 8.18395C8.92064 7.44682 9.33476 6.44705 9.33476 5.40459C9.33476 4.36213 8.92064 3.36236 8.18351 2.62523C7.44637 1.8881 6.44661 1.47398 5.40414 1.47398Z" fill="black"/>
</svg>
